<?xml version="1.0" encoding="utf-8"?>
<!-- Generator: Adobe Illustrator 19.0.0, SVG Export Plug-In . SVG Version: 6.00 Build 0)  -->
<svg version="1.1" id="Layer_1" xmlns="http://www.w3.org/2000/svg" xmlns:xlink="http://www.w3.org/1999/xlink" x="0px" y="0px"
	 viewBox="0 0 509 144.5" style="enable-background:new 0 0 509 144.5;" xml:space="preserve">
<style type="text/css">
	.st0{display:none;}
	.st1{fill:#FFFFFF;}
	.st2{display:none;fill:#6DB9B5;}
</style>
<path id="XMLID_7_" class="st0" d="M3.5,16v8.2v2.5h-4V24V0.3H4c2.2,0,3.9,0.2,5,0.5c1.1,0.3,2.1,0.9,3,1.7c1.5,1.5,2.3,3.3,2.3,5.6
	c0,2.4-0.8,4.3-2.4,5.7C10.3,15.3,8.1,16,5.3,16H3.5z M3.5,12.3H5c3.7,0,5.5-1.4,5.5-4.2C10.5,5.4,8.6,4,4.8,4H3.5V12.3z"/>
<path id="XMLID_10_" class="st1" d="M126,40.3h15.7v69.4H126v-5c-4.8,4-13.3,5-20.7,5c-9.3,0-17-3.4-23.1-10.1
	c-6.1-6.9-9.1-15.5-9.1-25.8c0-10.1,3-18.5,9.1-25.3c6-6.7,13.6-10.1,22.7-10.1c7.9,0,16.6,2,21.1,5.6V40.3z M89,73.8
	c0,6.5,1.7,11.7,5.2,15.8c3.6,4.1,8,6.2,13.4,6.2c5.8,0,10.4-2,14-6c3.6-4.1,5.3-9.3,5.3-15.7c0-6.3-1.8-11.5-5.3-15.7
	c-3.6-4-8.2-6-13.9-6c-5.4,0-9.8,2-13.4,6.1C90.8,62.7,89,67.7,89,73.8z"/>
<path id="XMLID_13_" class="st1" d="M192.9,51.8L180,58.6c-2-4.2-4.6-6.2-7.6-6.2c-1.4,0-2.7,0.5-3.7,1.4c-1,0.9-1.5,2.2-1.5,3.6
	c0,2.6,3,5.2,9,7.7c8.3,3.6,13.8,6.8,16.7,9.8c2.9,3,4.3,7,4.3,12.1c0,6.5-2.4,12-7.2,16.4c-4.7,4.2-10.3,6.2-16.9,6.2
	c-11.3,0-19.3-5.5-24-16.6l13.3-6.2c1.8,3.2,3.3,5.3,4.2,6.2c1.9,1.8,4.2,2.6,6.8,2.6c5.3,0,7.9-2.4,7.9-7.2c0-2.8-2-5.4-6.1-7.8
	c-1.6-0.8-3.1-1.5-4.7-2.3c-1.6-0.7-3.2-1.5-4.8-2.3c-4.5-2.2-7.7-4.4-9.6-6.7c-2.4-2.8-3.5-6.4-3.5-10.9c0-5.9,2-10.7,6-14.5
	c4.1-3.8,9.1-5.8,15-5.8C182.3,38.4,188.7,42.8,192.9,51.8z"/>
<path id="XMLID_15_" class="st1" d="M246.4,51.8l-12.9,6.9c-2-4.2-4.6-6.2-7.6-6.2c-1.4,0-2.7,0.5-3.7,1.4c-1,0.9-1.5,2.2-1.5,3.6
	c0,2.6,3,5.2,9,7.7c8.3,3.6,13.8,6.8,16.7,9.8c2.9,3,4.3,7,4.3,12.1c0,6.5-2.4,12-7.2,16.4c-4.7,4.2-10.3,6.2-16.9,6.2
	c-11.3,0-19.3-5.5-24-16.6L216,87c1.8,3.2,3.3,5.3,4.2,6.2c1.9,1.8,4.2,2.6,6.8,2.6c5.3,0,7.9-2.4,7.9-7.2c0-2.8-2-5.4-6.1-7.8
	c-1.6-0.8-3.1-1.5-4.7-2.3c-1.6-0.7-3.2-1.5-4.8-2.3c-4.5-2.2-7.7-4.4-9.6-6.7c-2.4-2.8-3.5-6.4-3.5-10.9c0-5.9,2-10.7,6-14.5
	c4.1-3.8,9.1-5.8,15-5.8C235.8,38.4,242.2,42.8,246.4,51.8z"/>
<path id="XMLID_17_" class="st2" d="M81.6,16v10.7h-4V0.3h4.5c2.2,0,3.9,0.2,5,0.5c1.1,0.3,2.1,0.9,3,1.7c1.5,1.5,2.3,3.3,2.3,5.6
	c0,2.4-0.8,4.3-2.4,5.7c-1.6,1.4-3.8,2.1-6.5,2.1H81.6z M81.6,12.3h1.5c3.7,0,5.5-1.4,5.5-4.2c0-2.7-1.9-4.1-5.7-4.1h-1.3V12.3z"/>
<path id="XMLID_23_" class="st1" d="M427.8,49.3v60.2h-15.6V49.3h-12.8V34.8h12.8V9h15.6v25.8H440v14.5H427.8z"/>
<path id="XMLID_25_" class="st1" d="M447.4,0h15.6v43.9c4.4-3.7,11.6-4.1,18.3-4.1c7.6,0,13.7,2.9,18.3,7.8
	c3.9,4.3,6.3,11.2,6.3,20.6v41.4h-16.1V69.6c0-5.4-1-9.3-2.9-11.7c-1.9-2.4-5-3.6-9.2-3.6c-5.5,0-9.3,1.7-11.5,5.1
	c-2.2,3.4-3.3,9.3-3.3,17.6v32.6h-15.6V0z"/>
<rect id="XMLID_6_" x="-5" y="23.2" transform="matrix(-0.7001 -0.714 0.714 -0.7001 -22.4861 39.4313)" class="st0" width="4" height="2.4"/>
<path id="XMLID_39_" class="st1" d="M66.8,10c-3.5-3.8-7.6-6.4-12.2-7.7c-4.6-1.4-11.3-2-20.3-2H16c0,0,1.4,24.2,1.4,34.7
	c0,7.3-0.7,21.2-1.1,29C15.6,74.3,12.4,97.1,0,98l12.1,11.7c14.5-1.1,19-26.1,20.3-40h4.5h2.8c11.1,0,20-3.1,26.5-9.4
	C72.8,54,76,45.5,76,34.8C76,24.8,73,16.5,66.8,10z M38.2,53.3h-4.4c0,0,0.6-10.8,0.6-18.4c0-7.6-0.6-18.4-0.6-18.4h3.7
	c15.3,0,22.9,6,22.9,18.1C60.5,47.1,53,53.3,38.2,53.3z"/>
<path id="XMLID_21_" class="st1" d="M376.2,40.1h15.7v69.4h-15.7v-5c-4.8,4-13.3,5-20.7,5c-9.3,0-17-3.4-23.1-10.1
	c-6.1-6.9-9.1-15.5-9.1-25.8c0-10.1,3-18.5,9.1-25.3c6-6.7,13.6-10.1,22.7-10.1c7.9,0,16.6,2,21.1,5.6V40.1z M339.2,73.6
	c0,6.5,1.7,11.7,5.2,15.8c3.6,4.1,8,6.2,13.4,6.2c5.8,0,10.4-2,14-6c3.6-4.1,5.3-9.3,5.3-15.7c0-6.3-1.8-11.5-5.3-15.7
	c-3.6-4-8.2-6-13.9-6c-5.4,0-9.8,2-13.4,6.1C341,62.5,339.2,67.6,339.2,73.6z"/>
<path id="XMLID_1_" class="st1" d="M309.9,44.8c-3.5-3.8-7.6-6.4-12.2-7.7c-4.6-1.4-11.3-2-20.3-2h-18.3c0,0,1.4,24.2,1.4,34.7
	c0,7.3-0.7,21.2-1.1,29c-0.8,10.4-3.9,33.2-16.4,34.1l12.1,11.7c14.5-1.1,19-26.1,20.3-40h4.5h2.8c11.1,0,20-3.1,26.5-9.4
	c6.6-6.3,9.8-14.7,9.8-25.4C319.2,59.6,316.1,51.3,309.9,44.8z M281.3,88.1H277c0,0,0.6-10.8,0.6-18.4c0-7.6-0.6-18.4-0.6-18.4h3.7
	c15.3,0,22.9,6,22.9,18.1C303.6,81.9,296.2,88.1,281.3,88.1z"/>
<path id="XMLID_29_" class="st0" d="M-4.5,22.4c0,0,4.2,0.4,4.2-10.6S-0.5,0.3-0.5,0.3l3.3,0.1L0,22.2L-4.5,22.4z"/>
<path id="XMLID_27_" class="st0" d="M-4.5,22.4c0,0,4.2,0.4,4.2-10.6S-0.5,0.3-0.5,0.3l3.3,0.1L0,22.2L-4.5,22.4z"/>
<path id="XMLID_31_" class="st0" d="M12,2.5c-0.9-0.9-1.9-1.4-3-1.7C7.9,0.5,6.2,0.3,4,0.3h-4.5c0,0,0.3,5.5,0.3,7.8S-0.5,16-0.5,16
	h4h1.1h0.7c2.7,0,4.9-0.7,6.5-2.1c1.6-1.4,2.4-3.3,2.4-5.7C14.3,5.9,13.5,4,12,2.5z M5,12.3H3.9c0,0,0.1-2.4,0.1-4.1S3.9,4,3.9,4
	h0.9c3.8,0,5.7,1.4,5.7,4.1C10.5,10.9,8.6,12.3,5,12.3z"/>
<path id="XMLID_36_" class="st2" d="M137.5,21.7c0,0,0-0.1,0-0.1l0,0c0,0,0,0,0,0h0v-5c0-2.3-0.6-4-1.5-5.1
	c-1.1-1.2-2.6-1.9-4.5-1.9c-1.7,0-3.4,0.1-4.5,1V-3.3H123v30h3.8v-8c0-2.1,0.3-3.5,0.8-4.3c0.5-0.8,1.5-1.2,2.8-1.2
	c1,0,1.8,0.3,2.3,0.9c0.5,0.6,0.7,1.6,0.7,2.9v4.7h0l0,1.3c0.3,3.1,1.4,8.8,5,9l3-2.6C138.5,29,137.7,24.1,137.5,21.7z"/>
</svg>
